HIERARCHY
ROOT Hips
{
	OFFSET 0.000000 0.000000 0.000000
	CHANNELS 6 Xposition Yposition Zposition Zrotation Yrotation Xrotation 
	JOINT LHipJoint
	{
		OFFSET 0.000000 0.000000 0.000000
		CHANNELS 3 Zrotation Yrotation Xrotation
		JOINT LeftUpLeg
		{
			OFFSET 1.363060 -1.794630 0.839290
			CHANNELS 3 Zrotation Yrotation Xrotation
			JOINT LeftLeg
			{
				OFFSET 2.448110 -6.726130 0.000000
				CHANNELS 3 Zrotation Yrotation Xrotation
				JOINT LeftFoot
				{
					OFFSET 2.562200 -7.039590 0.000000
					CHANNELS 3 Zrotation Yrotation Xrotation
					JOINT LeftToeBase
					{
						OFFSET 0.157640 -0.433110 2.322550
						CHANNELS 3 Zrotation Yrotation Xrotation
						End Site
						{
							OFFSET 0.000000 0.000000 0.000000
						}
					}
				}
			}
		}
	}
	JOINT RHipJoint
	{
		OFFSET 0.000000 0.000000 0.000000
		CHANNELS 3 Zrotation Yrotation Xrotation
		JOINT RightUpLeg
		{
			OFFSET -1.305520 -1.794630 0.839290
			CHANNELS 3 Zrotation Yrotation Xrotation
			JOINT RightLeg
			{
				OFFSET -2.542530 -6.985550 0.000000
				CHANNELS 3 Zrotation Yrotation Xrotation
				JOINT RightFoot
				{
					OFFSET -2.568260 -7.056230 0.000000
					CHANNELS 3 Zrotation Yrotation Xrotation
					JOINT RightToeBase
					{
						OFFSET -0.164730 -0.452590 2.363150
						CHANNELS 3 Zrotation Yrotation Xrotation
						End Site
						{
							OFFSET 0.000000 0.000000 0.000000
						}
					}
				}
			}
		}
	}
	JOINT LowerBack
	{
		OFFSET 0.000000 0.000000 0.000000
		CHANNELS 3 Zrotation Yrotation Xrotation
		JOINT Spine
		{
			OFFSET 0.028270 2.035590 -0.193380
			CHANNELS 3 Zrotation Yrotation Xrotation
			JOINT Spine1
			{
				OFFSET 0.056720 2.048850 -0.042750
				CHANNELS 3 Zrotation Yrotation Xrotation
				JOINT Neck
				{
					OFFSET 0.000000 0.000000 0.000000
					CHANNELS 3 Zrotation Yrotation Xrotation
					JOINT Neck1
					{
						OFFSET -0.054170 1.746240 0.172020
						CHANNELS 3 Zrotation Yrotation Xrotation
						JOINT Head
						{
							OFFSET 0.104070 1.761360 -0.123970
							CHANNELS 3 Zrotation Yrotation Xrotation
							End Site
							{
								OFFSET 0.000000 0.000000 0.000000
							}
						}
					}
				}
				JOINT LeftShoulder
				{
					OFFSET 0.000000 0.000000 0.000000
					CHANNELS 3 Zrotation Yrotation Xrotation
					JOINT LeftArm
					{
						OFFSET 3.362410 1.200890 -0.311210
						CHANNELS 3 Zrotation Yrotation Xrotation
						JOINT LeftForeArm
						{
							OFFSET 4.983000 -0.000000 -0.000000
							CHANNELS 3 Zrotation Yrotation Xrotation
							JOINT LeftHand
							{
								OFFSET 3.483560 -0.000000 -0.000000
								CHANNELS 3 Zrotation Yrotation Xrotation
								JOINT LeftFingerBase
								{
									OFFSET 0.000000 0.000000 0.000000
									CHANNELS 3 Zrotation Yrotation Xrotation
									JOINT LeftHandIndex1
									{
										OFFSET 0.715260 -0.000000 -0.000000
										CHANNELS 3 Zrotation Yrotation Xrotation
										End Site
										{
											OFFSET 0.000000 0.000000 0.000000
										}
									}
								}
								JOINT LThumb
								{
									OFFSET 0.000000 0.000000 0.000000
									CHANNELS 3 Zrotation Yrotation Xrotation
									End Site
									{
										OFFSET 0.000000 0.000000 0.000000
									}
								}
							}
						}
					}
				}
				JOINT RightShoulder
				{
					OFFSET 0.000000 0.000000 0.000000
					CHANNELS 3 Zrotation Yrotation Xrotation
					JOINT RightArm
					{
						OFFSET -3.136600 1.374050 -0.404650
						CHANNELS 3 Zrotation Yrotation Xrotation
						JOINT RightForeArm
						{
							OFFSET -5.241900 -0.000000 -0.000000
							CHANNELS 3 Zrotation Yrotation Xrotation
							JOINT RightHand
							{
								OFFSET -3.444170 -0.000000 -0.000000
								CHANNELS 3 Zrotation Yrotation Xrotation
								JOINT RightFingerBase
								{
									OFFSET 0.000000 0.000000 0.000000
									CHANNELS 3 Zrotation Yrotation Xrotation
									JOINT RightHandIndex1
									{
										OFFSET -0.622530 -0.000000 -0.000000
										CHANNELS 3 Zrotation Yrotation Xrotation
										End Site
										{
											OFFSET 0.000000 0.000000 0.000000
										}
									}
								}
								JOINT RThumb
								{
									OFFSET 0.000000 0.000000 0.000000
									CHANNELS 3 Zrotation Yrotation Xrotation
									End Site
									{
										OFFSET 0.000000 0.000000 0.000000
									}
								}
							}
						}
					}
				}
			}
		}
	}
}
MOTION
Frames: 11
Frame Time: 0.033333
-0.457731 17.031889 -15.879794 86.450715 -19.514010 -37.669135 -91.686794 -48.951552 55.062453 8.586898 19.627770 -50.993079 -77.090889 64.413577 -75.325583 22.578881 13.317060 4.100398 -0.115201 0.003943 -28.326013 35.918818 -7.225093 -102.821249 38.036202 -36.488224 -106.707076 117.051649 -55.889225 -120.503612 48.010836 -7.118250 -14.172172 0.235897 -0.012233 -68.403425 -131.376725 65.820206 -53.829586 -175.524010 68.227312 -173.753509 -137.024633 65.406336 -148.990179 21.311978 8.085648 13.146355 8.936845 5.222904 -3.273139 0.001575 -0.074395 0.049406 126.369248 52.201027 35.322087 66.538427 67.468509 46.979451 -8.074019 31.255938 -114.467457 7.792008 -14.936143 59.701042 -18.174845 -5.568396 -10.585807 -0.079105 -0.042704 0.035926 0.022425 0.033731 -0.057316 50.411024 67.709793 77.766008 32.047633 44.587467 137.577164 -24.108807 -38.159245 105.194835 6.162056 52.700233 -2.825932 -2.122447 -15.025246 -5.453823 -0.097290 0.049920 -0.060004 -0.016320 -0.090814 -0.030210 
-0.501231 16.487310 -15.091331 86.369745 -19.801309 -35.381007 -88.322741 -47.243429 55.580816 6.631608 16.338358 -57.224731 -84.372282 66.813445 -79.151328 26.354559 9.560595 -10.829477 -0.448289 0.047215 -28.154181 35.730576 -6.400290 -101.744389 39.302874 -37.316365 -107.721135 123.410779 -51.545402 -115.803362 48.673646 -10.418182 -20.566358 -0.010688 -0.112542 -69.160286 -131.100361 65.126495 -52.590985 -178.444289 70.133830 -176.742136 -141.010493 64.555197 -152.489847 22.072825 -0.475355 13.772023 10.594547 7.968756 -2.630995 0.069004 -0.050229 0.093095 119.928022 55.558545 30.788115 68.173662 67.079529 46.217715 -12.567981 36.573176 -115.716369 6.757074 8.466412 91.847317 -17.581706 -7.214404 -8.748578 -0.074306 -0.060354 0.039204 0.003289 0.096008 -0.025432 47.406712 62.971665 73.317349 40.195405 43.231367 147.099434 -13.528105 -38.881040 103.564444 6.613000 42.559502 5.538866 -3.051277 -7.379580 5.431935 -0.052904 0.022681 -0.085060 -0.056533 -0.082833 -0.045858 
-0.518940 16.116199 -14.344425 85.722455 -19.615230 -34.336593 -84.775244 -46.951086 56.092837 5.321080 12.424432 -62.532141 -86.329855 71.681803 -77.115032 20.300278 10.696888 -22.418031 -1.217042 0.042203 -29.418073 35.730942 -9.384754 -101.133658 43.792885 -38.604918 -107.793452 120.025340 -50.619429 -104.713228 42.175100 -5.867628 -37.202048 -0.296971 -0.202323 -65.100839 -128.951217 64.790041 -49.400808 179.296844 69.750523 -179.142781 -142.178637 65.492122 -152.992470 23.040435 -1.191553 12.788935 10.205937 5.390718 2.263929 0.086086 -0.011472 0.023724 114.794739 56.981834 27.438649 65.185236 70.335053 41.423595 -10.030917 37.789315 -113.349199 14.230993 24.584022 104.718974 -13.357944 -7.506615 -8.135028 -0.080492 -0.063578 0.044016 0.003158 0.065892 -0.026788 45.918403 60.321861 70.419514 49.946965 39.941644 156.367835 -9.887864 -37.331126 99.506767 16.891755 40.634241 17.666388 8.494073 6.443991 13.291791 0.007074 0.018732 -0.001110 0.002242 -0.086708 -0.041073 
-0.487454 15.944240 -13.604039 85.598018 -19.208337 -34.201932 -84.784606 -45.768102 55.582654 8.267803 9.665187 -62.624548 -89.675757 74.389186 -75.573690 8.281183 10.378543 -30.691928 -1.747514 0.039722 -31.098700 34.828702 -11.738176 -101.453505 50.311228 -39.953868 -108.585106 110.741501 -47.667219 -93.824357 24.558738 -14.782641 -36.060989 -0.567678 -0.170931 -59.362866 -127.665950 65.400141 -47.760120 178.260056 70.235918 179.905047 -144.349500 66.296613 -153.838245 17.867453 0.816618 6.757014 13.378274 0.767928 3.901932 0.054307 -0.100424 0.037649 113.373937 57.754115 23.766731 57.558994 73.456247 32.392663 -3.863582 38.933424 -116.376032 21.638654 28.712190 81.292514 -14.225042 -19.447465 -14.111847 -0.057388 -0.000090 0.028847 0.056131 -0.014096 -0.033067 45.268596 59.656801 68.803571 56.086184 36.219630 163.401611 -11.137146 -34.963492 92.679752 31.575804 40.832742 26.362781 25.993521 13.459734 24.754451 -0.051865 0.038814 -0.027653 -0.088610 0.020714 -0.043732 
-0.441748 15.940311 -12.845092 86.140320 -19.220892 -33.876446 -83.753032 -45.955496 53.597673 5.649031 8.211968 -63.710689 -81.939863 76.391308 -64.559381 3.118295 9.685483 -33.018001 -1.851399 0.018767 -30.725619 35.644722 -11.894698 -102.833665 56.747653 -43.512563 -108.091902 109.126101 -42.016344 -84.318065 6.706646 -33.835040 -22.996859 -0.378026 -0.185055 -53.437610 -122.561371 63.500418 -42.032451 179.403865 69.887263 -176.049640 -142.328353 66.096835 -150.165539 14.312036 8.889852 8.877789 16.508094 2.041086 -0.328864 -0.016510 0.041345 0.048354 116.086653 59.561865 24.809667 45.571243 74.928949 21.589408 -7.715213 37.787343 -125.545750 8.974869 29.369808 45.780530 -15.144095 -27.353517 -19.175944 -0.010774 -0.060336 0.067949 0.067419 0.062413 -0.024579 46.728595 60.513452 72.289110 56.530789 35.087372 165.773639 -13.215695 -32.109528 86.561311 36.977114 33.517150 37.406041 29.901410 24.858894 24.665588 -0.022051 0.038139 -0.005154 0.018229 -0.081518 -0.075344 
-0.418455 16.105143 -12.066052 87.274681 -18.281413 -35.358569 -85.907780 -45.054530 52.985059 2.554572 8.389515 -60.941882 -78.951091 72.907995 -59.128233 5.617329 10.918564 -30.432905 -1.698217 -0.040518 -30.939834 36.312671 -11.128771 -103.267600 60.425797 -47.369529 -106.557051 111.395419 -35.476423 -78.059153 -7.477289 -40.782017 -12.024508 -0.126803 -0.177901 -48.620675 -120.399372 62.022509 -38.706121 -179.964354 69.445156 -175.072355 -148.232541 67.736336 -154.086424 10.902463 13.603785 6.607277 15.557631 0.096465 1.876321 0.064309 -0.087074 0.005918 117.969176 61.856761 26.756382 34.651608 75.216150 10.451605 -14.307127 33.278835 -130.351695 11.325669 29.174516 23.510294 -21.275488 -27.006628 -23.494460 -0.046720 -0.013850 0.028675 0.050516 -0.013679 -0.066638 51.770953 61.844604 78.479184 55.649444 31.462238 166.918251 -14.437545 -27.587780 82.590690 32.879057 20.563391 33.285229 12.868634 28.550967 3.325657 -0.014008 0.077122 -0.064978 -0.025158 -0.025490 0.044796 
-0.409960 16.445883 -11.257146 87.508116 -17.599758 -36.278144 -89.850575 -44.272880 53.855727 0.779678 7.788921 -55.875768 -72.082333 65.898323 -54.012200 6.144903 14.297181 -26.366356 -1.551843 -0.000637 -32.683192 36.528375 -8.944519 -103.184660 60.572891 -51.647084 -106.646836 111.905371 -32.833689 -78.285346 -10.153740 -46.109360 -11.318306 -0.320806 -0.161651 -44.175666 -116.741356 61.841599 -34.660601 176.816356 71.529976 -179.162132 -156.529280 67.275068 -160.988429 11.273462 13.614807 5.181308 14.217233 -2.027603 5.401110 0.035326 0.015940 0.043281 117.632924 61.024563 24.150957 33.889364 75.640766 11.115867 -19.868398 31.501481 -133.718104 9.545104 27.484339 23.240365 -24.369274 -16.686665 -17.033880 -0.067802 0.014383 0.006926 0.036013 0.037562 0.001066 57.317988 62.845840 80.194963 56.660818 26.923367 167.818829 -18.206143 -22.387709 76.721561 21.519977 7.941629 32.109433 -11.168892 20.066830 -39.396277 -0.041029 0.050558 0.067065 -0.033779 0.001502 -0.007515 
-0.399033 16.914788 -10.395806 87.726075 -17.180367 -35.385157 -94.644965 -44.398425 53.156878 -3.136108 7.800735 -50.885258 -59.999852 61.670916 -47.855946 5.740332 15.563662 -19.463060 -1.161768 0.002364 -35.245106 35.437214 -5.880957 -104.883686 60.302890 -56.950135 -107.625862 111.574729 -34.249033 -81.325166 -8.749264 -41.959917 -10.722603 -0.490698 -0.077600 -41.535321 -112.122107 60.568416 -30.570981 177.548803 71.273100 -179.280758 -158.607199 68.638661 -163.497986 11.555746 10.136383 5.408192 10.502992 -2.461883 2.450976 -0.050726 -0.020632 -0.031749 117.389660 59.914369 21.393734 35.597820 75.285622 11.795178 -28.151600 30.127330 -135.524767 7.338821 17.849497 23.135902 -13.576114 -10.593208 -18.843946 -0.032234 -0.065440 0.055994 0.026038 -0.036100 0.036906 57.151562 64.265472 80.334835 59.271865 24.101357 168.375971 -19.736716 -22.413194 71.345020 7.411236 -3.454144 23.869885 -15.824050 11.137804 -39.210477 0.019630 -0.006882 0.034333 -0.042882 -0.008022 -0.021759 
-0.397723 17.437044 -9.473224 88.102242 -17.173549 -35.309723 -100.716149 -43.690379 55.809763 -3.918109 5.806604 -46.869550 -53.287586 58.340085 -50.655940 4.135880 16.247354 -7.859323 -0.900894 0.083108 -39.361496 35.410035 -4.417960 -104.673855 60.564068 -61.157883 -108.068684 112.990759 -38.624596 -87.892614 -14.169449 -39.004089 -5.365799 -0.918743 -0.011127 -40.123684 -109.384897 61.038874 -29.576250 -178.732744 71.571426 -175.127401 -155.110785 70.010522 -160.423720 10.826775 7.584725 3.427205 13.207690 2.548831 2.548601 0.053535 -0.056575 -0.020193 119.670009 59.948389 20.872649 32.277694 74.618063 4.881196 -34.633417 29.395971 -131.814931 3.725062 9.894187 13.745965 -3.323163 -11.605371 -23.599514 0.026270 -0.061733 -0.033207 0.039025 -0.035768 0.002908 52.036159 64.934232 77.290611 60.850270 19.748969 170.897778 -15.825457 -26.429628 65.407525 6.121280 -13.015548 20.993731 -14.303376 4.505860 -45.779246 0.001318 0.053532 0.013166 0.018336 -0.008702 -0.010988 
-0.423968 17.949413 -8.505228 88.109180 -16.468703 -34.454912 -107.513354 -43.367302 60.716714 -5.313730 5.561529 -45.549597 -45.529276 56.487512 -50.467058 3.448831 18.829840 7.862740 -0.434279 -0.011395 -43.623739 34.798568 -3.073120 -104.528870 61.135744 -63.123322 -111.286327 113.518281 -45.091082 -97.122331 -20.253276 -35.635161 -2.419993 -0.978220 -0.053381 -40.358366 -107.636931 59.207642 -29.250375 -176.880584 71.929526 -173.953411 -152.740840 69.141833 -156.877080 8.467188 7.884986 2.066441 12.410407 5.378979 2.192635 0.000169 -0.065951 0.065735 121.158644 60.236041 20.665663 29.084003 75.485377 -0.434704 -42.367515 27.514527 -130.689882 -0.384490 2.076449 4.648697 2.529756 0.637208 -19.625205 -0.010304 0.001884 -0.017150 -0.040092 0.031643 -0.040289 41.353739 65.525877 69.338727 62.405130 17.154502 172.157572 -13.667413 -27.006615 63.919579 13.460435 -16.864625 12.472166 -9.962929 4.909278 -60.600214 -0.011183 0.008658 -0.067038 -0.003499 -0.057924 0.039351 
-0.475067 18.375553 -7.510295 88.230762 -15.887330 -34.109278 -109.237872 -43.024114 63.052476 -7.129079 4.007434 -45.292095 -40.732759 55.296533 -49.688091 7.630484 19.184717 29.761668 0.266830 0.042194 -46.401444 34.771546 -2.374913 -104.851089 55.353795 -62.764201 -108.666652 112.391271 -51.996129 -110.081168 -23.557148 -29.867622 -2.664052 -1.548155 0.081959 -41.942298 -110.262777 60.034355 -32.065363 -175.254847 73.471196 -173.095548 -151.418973 68.475807 -155.514023 9.557455 7.454458 3.871312 7.832832 4.563743 3.127190 0.004713 0.017550 -0.019338 117.673038 58.428959 14.953666 29.182359 77.308736 -2.930156 -48.622824 24.676270 -127.515552 2.835494 -5.629421 6.467151 14.368281 4.996641 -6.391975 -0.084126 -0.039301 0.008839 0.011220 0.011906 -0.041581 36.576452 62.749060 67.120391 62.780410 14.668744 174.001802 -8.703046 -28.278830 65.074986 18.989210 -18.173197 4.722998 -11.594906 3.137531 -76.033451 -0.040327 -0.020616 0.003223 -0.025393 -0.056800 0.019348 
